<svg xmlns="http://www.w3.org/2000/svg" xmlns:xlink="http://www.w3.org/1999/xlink" width="59.724" height="62.849" viewBox="0 0 59.724 62.849">
  <defs>
    <clipPath id="clip-path">
      <rect id="사각형_19026" data-name="사각형 19026" width="59.724" height="62.849" fill="none"/>
    </clipPath>
  </defs>
  <g id="그룹_31033" data-name="그룹 31033" transform="translate(0 0)">
    <g id="그룹_31032" data-name="그룹 31032" transform="translate(0 0)" clip-path="url(#clip-path)">
      <path id="패스_58191" data-name="패스 58191" d="M7.008,11.914a5.957,5.957,0,1,1,5.952-5.963,5.963,5.963,0,0,1-5.952,5.963m0-9.87a3.912,3.912,0,1,0,3.918,3.907A3.911,3.911,0,0,0,7.008,2.044" transform="translate(11.077 -0.016)"/>
      <path id="패스_58192" data-name="패스 58192" d="M53.2,33.782H1.262A1.015,1.015,0,0,1,.251,32.759V3.794A1.015,1.015,0,0,1,1.262,2.771H53.2a1.015,1.015,0,0,1,1.011,1.023V32.759A1.015,1.015,0,0,1,53.2,33.782M2.285,31.748H52.173V4.816H2.285Z" transform="translate(2.633 29.062)"/>
      <path id="패스_58193" data-name="패스 58193" d="M56.334,9.127H3.389a3.384,3.384,0,1,1,0-6.767H56.334a3.384,3.384,0,1,1,0,6.767M3.389,4.394a1.35,1.35,0,0,0,0,2.7H56.334a1.35,1.35,0,0,0,0-2.7Z" transform="translate(0 24.75)"/>
      <path id="패스_58194" data-name="패스 58194" d="M23.114,16.071H5.971A3.065,3.065,0,0,1,2.915,13V3.788A3.055,3.055,0,0,1,5.971.732H23.114A3.062,3.062,0,0,1,26.17,3.788V13a3.072,3.072,0,0,1-3.056,3.068M5.971,2.766A1.025,1.025,0,0,0,4.949,3.788V13a1.025,1.025,0,0,0,1.023,1.023H23.114A1.015,1.015,0,0,0,24.125,13V3.788a1.015,1.015,0,0,0-1.011-1.023Z" transform="translate(30.578 7.673)"/>
      <path id="패스_58195" data-name="패스 58195" d="M13.367,9.092h-8.9A1.015,1.015,0,0,1,3.451,8.069V2.911A1.015,1.015,0,0,1,4.462,1.888h8.9a1.015,1.015,0,0,1,1.011,1.023V8.069a1.015,1.015,0,0,1-1.011,1.023M5.485,7.058h6.859V3.933H5.485Z" transform="translate(36.2 19.799)"/>
      <path id="패스_58196" data-name="패스 58196" d="M20.235,16.75H1.69A1,1,0,0,1,.679,15.739V6.547A5.372,5.372,0,0,1,6.045,1.181H15.88a5.382,5.382,0,0,1,5.377,5.366v9.192a1.015,1.015,0,0,1-1.023,1.011M2.713,14.716H19.223V6.547A3.344,3.344,0,0,0,15.88,3.215H6.045A3.334,3.334,0,0,0,2.713,6.547Z" transform="translate(7.123 12.383)"/>
      <path id="패스_58197" data-name="패스 58197" d="M2.9,10.331A1.025,1.025,0,0,1,1.877,9.308V2.817a1.023,1.023,0,1,1,2.045,0V9.308A1.025,1.025,0,0,1,2.9,10.331" transform="translate(19.689 18.813)"/>
      <path id="패스_58198" data-name="패스 58198" d="M2.127,10.331A1.027,1.027,0,0,1,1.093,9.308V2.817a1.023,1.023,0,1,1,2.045,0V9.308a1.022,1.022,0,0,1-1.011,1.023" transform="translate(11.465 18.813)"/>
      <path id="패스_58199" data-name="패스 58199" d="M25.249,5.223H1.718a1.017,1.017,0,0,1,0-2.034H25.249a1.017,1.017,0,1,1,0,2.034" transform="translate(7.416 33.446)"/>
    </g>
  </g>
</svg>
