<svg xmlns="http://www.w3.org/2000/svg" xmlns:xlink="http://www.w3.org/1999/xlink" width="52.001" height="64.78" viewBox="0 0 52.001 64.78">
  <defs>
    <clipPath id="clip-path">
      <rect id="사각형_19025" data-name="사각형 19025" width="52.001" height="64.78" fill="none"/>
    </clipPath>
  </defs>
  <g id="그룹_31031" data-name="그룹 31031" transform="translate(0)">
    <g id="그룹_31030" data-name="그룹 31030" transform="translate(0)" clip-path="url(#clip-path)">
      <path id="패스_58183" data-name="패스 58183" d="M38.22,56.169H4.087A4.1,4.1,0,0,1,0,52.081V4.886A4.089,4.089,0,0,1,4.087.8H38.22a4.082,4.082,0,0,1,4.087,4.087v47.2a4.089,4.089,0,0,1-4.087,4.087M4.087,2.884a2,2,0,0,0-2,2v47.2a2,2,0,0,0,2,2H38.22a2,2,0,0,0,2-2V4.886a2,2,0,0,0-2-2Z" transform="translate(0 8.612)"/>
      <path id="패스_58184" data-name="패스 58184" d="M7.692,14.048a6.443,6.443,0,1,1,6.443-6.443,6.444,6.444,0,0,1-6.443,6.443m0-10.812a4.358,4.358,0,1,0,4.358,4.37,4.373,4.373,0,0,0-4.358-4.37" transform="translate(13.462 12.535)"/>
      <path id="패스_58185" data-name="패스 58185" d="M22.436,15.571H1.883A1.041,1.041,0,0,1,.835,14.535V8.5A6.256,6.256,0,0,1,7.089,2.262h.318A2.441,2.441,0,0,1,9.292,3.1l2.874,3.781,2.827-3.734a2.455,2.455,0,0,1,1.92-.883h.33A6.253,6.253,0,0,1,23.485,8.5v6.03a1.041,1.041,0,0,1-1.048,1.036m-19.5-2.085H21.388V8.5a4.162,4.162,0,0,0-4.146-4.158h-.33a.43.43,0,0,0-.294.106L12.99,9.247a1.081,1.081,0,0,1-1.661,0L7.666,4.406a.646.646,0,0,0-.259-.059H7.089A4.165,4.165,0,0,0,2.932,8.5Z" transform="translate(9 24.38)"/>
      <path id="패스_58186" data-name="패스 58186" d="M30.85,5.893H1.51a1.042,1.042,0,1,1,0-2.085H30.85a1.042,1.042,0,1,1,0,2.085" transform="translate(4.98 41.044)"/>
      <path id="패스_58187" data-name="패스 58187" d="M30.85,6.373H1.51a1.042,1.042,0,1,1,0-2.085H30.85a1.042,1.042,0,1,1,0,2.085" transform="translate(4.98 46.217)"/>
      <path id="패스_58188" data-name="패스 58188" d="M30.85,6.854H1.51a1.042,1.042,0,1,1,0-2.085H30.85a1.042,1.042,0,1,1,0,2.085" transform="translate(4.98 51.401)"/>
      <path id="패스_58189" data-name="패스 58189" d="M39.054,55.37h-1.8a1.031,1.031,0,0,1-1.036-1.036V8.787a2.016,2.016,0,0,0-2-2H1.87A1.041,1.041,0,0,1,.822,5.748V4.087A4.1,4.1,0,0,1,4.921,0H39.054a4.1,4.1,0,0,1,4.087,4.087v47.2a4.089,4.089,0,0,1-4.087,4.087M38.3,53.285h.754a2,2,0,0,0,2-2V4.087a2,2,0,0,0-2-2H4.921a2,2,0,0,0-2,2V4.7H34.213A4.1,4.1,0,0,1,38.3,8.787Z" transform="translate(8.86)"/>
      <path id="패스_58190" data-name="패스 58190" d="M38.643,55.769h-1.8A1.031,1.031,0,0,1,35.8,54.732V9.186a2.018,2.018,0,0,0-2.014-2H1.459A1.041,1.041,0,0,1,.411,6.147V4.486A4.1,4.1,0,0,1,4.51.4H38.643A4.1,4.1,0,0,1,42.73,4.486v47.2a4.089,4.089,0,0,1-4.087,4.087m-.754-2.085h.754a2.008,2.008,0,0,0,2-2V4.486a2.008,2.008,0,0,0-2-2H4.51a2,2,0,0,0-2,2V5.1H33.791a4.1,4.1,0,0,1,4.1,4.087Z" transform="translate(4.43 4.301)"/>
    </g>
  </g>
</svg>
