<svg xmlns="http://www.w3.org/2000/svg" xmlns:xlink="http://www.w3.org/1999/xlink" width="63.556" height="63.565" viewBox="0 0 63.556 63.565">
  <defs>
    <clipPath id="clip-path">
      <rect id="사각형_19024" data-name="사각형 19024" width="63.556" height="63.565" transform="translate(0 0.001)" fill="none"/>
    </clipPath>
  </defs>
  <g id="그룹_31029" data-name="그룹 31029" transform="translate(0 0)">
    <g id="그룹_31028" data-name="그룹 31028" clip-path="url(#clip-path)">
      <path id="패스_58173" data-name="패스 58173" d="M40.367,63.5A65.839,65.839,0,0,1,29.325,62.6a1.25,1.25,0,0,1-.148-2.428A20.773,20.773,0,0,0,40.3,52a1.251,1.251,0,0,1,1.017-.546c12.23-.163,19.739-3.264,19.739-5.415a1.25,1.25,0,0,1,2.5,0v9.528c0,5.206-11.666,7.93-23.189,7.93M34.289,60.73c1.968.177,4.017.269,6.078.269,12.63,0,20.689-3.216,20.689-5.43V49.854c-3.857,2.6-11.6,3.925-19.064,4.09a23.308,23.308,0,0,1-7.7,6.786"/>
      <path id="패스_58174" data-name="패스 58174" d="M41.333,53.956A1.25,1.25,0,0,1,40.3,52a20.666,20.666,0,0,0,3.408-9.109,1.251,1.251,0,0,1,1.16-1.1c10.563-.684,16.188-3.508,16.188-5.284a1.25,1.25,0,0,1,2.5,0v9.528c0,5.235-11.511,7.772-22.206,7.915Zm4.709-9.738a23.278,23.278,0,0,1-2.45,7.172c10.879-.487,17.464-3.335,17.464-5.349V40.307c-3.305,2.215-9.369,3.455-15.014,3.911"/>
      <path id="패스_58175" data-name="패스 58175" d="M44.949,44.294a1.25,1.25,0,0,1-1.241-1.4,20.04,20.04,0,0,0-.861-8.941,1.25,1.25,0,0,1,1.124-1.636c11-.565,17.085-3.511,17.085-5.331a1.25,1.25,0,1,1,2.5,0v9.528c0,4.856-9.98,7.225-18.526,7.779l-.081,0m.72-9.581a23.081,23.081,0,0,1,.708,5.663c0,.42-.015.855-.044,1.31,9.617-.838,14.723-3.481,14.723-5.173V30.749c-3.245,2.179-9.226,3.5-15.387,3.964"/>
      <path id="패스_58176" data-name="패스 58176" d="M44.036,34.815a1.251,1.251,0,0,1-1.189-.863,20.7,20.7,0,0,0-5.833-8.933,1.25,1.25,0,0,1,.881-2.178c.813.028,1.635.046,2.472.046,12.63,0,20.689-3.215,20.689-5.429a1.25,1.25,0,1,1,2.5,0v9.528c0,4.716-9.771,7.329-19.456,7.827l-.064,0m-3.185-9.429A23.163,23.163,0,0,1,44.9,32.262c10.411-.679,16.152-3.509,16.152-5.276V21.252c-3.965,2.674-12.079,4.08-20.2,4.134"/>
      <path id="패스_58177" data-name="패스 58177" d="M40.366,25.387c-.866,0-1.717-.019-2.559-.048a1.255,1.255,0,0,1-.793-.32,20.618,20.618,0,0,0-17.852-4.933,1.248,1.248,0,0,1-1.264-.508,3.659,3.659,0,0,1-.721-2.12V7.93a1.25,1.25,0,0,1,2.5,0c0,2.214,8.06,5.429,20.689,5.429s20.69-3.215,20.69-5.429a1.25,1.25,0,1,1,2.5,0v9.528c0,5.206-11.666,7.929-23.19,7.929m-2.025-2.532c.667.02,1.342.032,2.025.032,12.63,0,20.69-3.216,20.69-5.429V11.724c-4.043,2.727-12.4,4.135-20.69,4.135S23.72,14.451,19.677,11.724v5.734h0a23.08,23.08,0,0,1,18.664,5.4"/>
      <path id="패스_58178" data-name="패스 58178" d="M40.367,15.859c-11.523,0-23.189-2.723-23.189-7.929S28.844,0,40.367,0,63.556,2.724,63.556,7.93,51.89,15.859,40.367,15.859m0-13.359c-12.629,0-20.689,3.216-20.689,5.43s8.06,5.429,20.689,5.429S61.056,10.144,61.056,7.93,53,2.5,40.367,2.5"/>
      <path id="패스_58179" data-name="패스 58179" d="M23.189,63.566A23.189,23.189,0,1,1,46.377,40.377,23.215,23.215,0,0,1,23.189,63.566m0-43.878A20.689,20.689,0,1,0,43.877,40.377,20.712,20.712,0,0,0,23.189,19.688"/>
      <path id="패스_58180" data-name="패스 58180" d="M23.056,52.541a10.81,10.81,0,0,1-6.814-2.4,1.25,1.25,0,0,1,1.6-1.92,8.006,8.006,0,0,0,8,1.25,3.615,3.615,0,0,0,2.238-3.429c0-2.506-1.978-3.542-5.237-4.95-3.086-1.333-6.584-2.843-6.558-6.988a5.713,5.713,0,0,1,3.8-5.27,8.275,8.275,0,0,1,9.192,1.841,1.25,1.25,0,0,1-1.78,1.756,5.8,5.8,0,0,0-6.428-1.3,3.348,3.348,0,0,0-2.282,2.942c-.014,2.415,1.909,3.367,5.05,4.723,3,1.3,6.745,2.914,6.745,7.244a6.1,6.1,0,0,1-3.677,5.694,9.109,9.109,0,0,1-3.851.811"/>
      <path id="패스_58181" data-name="패스 58181" d="M23.189,57.274a1.25,1.25,0,0,1-1.25-1.25V51.295a1.25,1.25,0,0,1,2.5,0v4.729a1.25,1.25,0,0,1-1.25,1.25"/>
      <path id="패스_58182" data-name="패스 58182" d="M23.189,30.673a1.25,1.25,0,0,1-1.25-1.25V24.729a1.25,1.25,0,0,1,2.5,0v4.694a1.25,1.25,0,0,1-1.25,1.25"/>
    </g>
  </g>
</svg>
