<svg xmlns="http://www.w3.org/2000/svg" xmlns:xlink="http://www.w3.org/1999/xlink" width="87.314" height="65.344" viewBox="0 0 87.314 65.344">
  <defs>
    <clipPath id="clip-path">
      <rect id="사각형_19030" data-name="사각형 19030" width="87.314" height="65.343" fill="none"/>
    </clipPath>
  </defs>
  <g id="그룹_31043" data-name="그룹 31043" transform="translate(0 0)">
    <g id="그룹_31042" data-name="그룹 31042" transform="translate(0 0)" clip-path="url(#clip-path)">
      <path id="패스_58205" data-name="패스 58205" d="M71.334,28.931H54.583a1.624,1.624,0,0,1,0-3.249H71.334A2.18,2.18,0,0,0,73.51,23.5V5.431a2.182,2.182,0,0,0-2.177-2.182H44.6a2.182,2.182,0,0,0-2.178,2.182V23.5A2.181,2.181,0,0,0,44.6,25.682h2.38a1.624,1.624,0,1,1,0,3.249H44.6A5.433,5.433,0,0,1,39.169,23.5V5.431A5.435,5.435,0,0,1,44.6,0H71.334a5.434,5.434,0,0,1,5.425,5.431V23.5A5.433,5.433,0,0,1,71.334,28.931Z" transform="translate(10.589 -0.036)" fill="#3a3a3a"/>
      <path id="패스_58206" data-name="패스 58206" d="M45.656,31.536a1.625,1.625,0,0,1-1.624-1.624V21.827a1.624,1.624,0,1,1,3.249,0v3.988l4.8-5.1a1.624,1.624,0,0,1,2.366,2.226L46.84,31.025A1.624,1.624,0,0,1,45.656,31.536Z" transform="translate(11.908 5.444)" fill="#3a3a3a"/>
      <path id="선_1464" data-name="선 1464" d="M18.038,2H.374a1.624,1.624,0,1,1,0-3.249H18.038a1.624,1.624,0,1,1,0,3.249Z" transform="translate(60.27 10)" fill="#3a3a3a"/>
      <path id="선_1465" data-name="선 1465" d="M18.038,2H.374a1.624,1.624,0,1,1,0-3.249H18.038a1.624,1.624,0,1,1,0,3.249Z" transform="translate(60.27 17.306)" fill="#3a3a3a"/>
      <path id="패스_58207" data-name="패스 58207" d="M48.064,56.16a1.624,1.624,0,0,1-1.624-1.624A17.191,17.191,0,0,0,29.269,37.364H28.2a1.624,1.624,0,1,1,0-3.249h1.065a20.423,20.423,0,0,1,20.42,20.421A1.624,1.624,0,0,1,48.064,56.16Z" transform="translate(7.174 9.218)" fill="#3a3a3a"/>
      <path id="패스_58208" data-name="패스 58208" d="M1.624,56.16A1.624,1.624,0,0,1,0,54.536,20.424,20.424,0,0,1,20.421,34.115a1.624,1.624,0,0,1,0,3.249A17.192,17.192,0,0,0,3.249,54.536,1.624,1.624,0,0,1,1.624,56.16Z" transform="translate(-0.035 9.218)" fill="#3a3a3a"/>
      <path id="패스_58209" data-name="패스 58209" d="M24.046,48.684h-.022a1.624,1.624,0,0,1-1.237-.6c-.074-.09-1.824-2.241-3.6-4.827-3.415-4.963-3.809-6.966-3.809-8.041V27.488a1.624,1.624,0,1,1,3.249,0v7.729c0,.249.156,1.718,3.226,6.183.8,1.159,1.6,2.242,2.231,3.069.671-.831,1.53-1.928,2.383-3.1,3.234-4.455,3.4-5.9,3.4-6.15V29.169a1.624,1.624,0,0,1,3.249,0v6.049c0,1.085-.418,3.1-4.031,8.075-1.878,2.585-3.726,4.736-3.8,4.826A1.624,1.624,0,0,1,24.046,48.684Z" transform="translate(4.135 6.98)" fill="#3a3a3a"/>
      <path id="패스_58210" data-name="패스 58210" d="M25.8,38.027A15.557,15.557,0,0,1,10.238,22.464V15.775a15.559,15.559,0,0,1,31.118,0v6.689A15.563,15.563,0,0,1,25.8,38.027Zm0-34.563a12.324,12.324,0,0,0-12.31,12.31v6.689a12.31,12.31,0,1,0,24.621,0V15.775A12.324,12.324,0,0,0,25.8,3.465Z" transform="translate(2.742 0.023)" fill="#3a3a3a"/>
      <path id="패스_58211" data-name="패스 58211" d="M39.035,18.252c-6.461,0-11.452-4.739-13.736-7.387a17.161,17.161,0,0,1-7.524,4.915,17.671,17.671,0,0,1-5.1.943,1.624,1.624,0,0,1,0-3.249,14.788,14.788,0,0,0,4.181-.812,13.52,13.52,0,0,0,7.081-5.341,1.624,1.624,0,0,1,2.694-.014c.051.075,5.361,7.7,12.408,7.7a1.624,1.624,0,1,1,0,3.249Z" transform="translate(2.963 1.754)" fill="#3a3a3a"/>
    </g>
  </g>
</svg>
