<svg xmlns="http://www.w3.org/2000/svg" xmlns:xlink="http://www.w3.org/1999/xlink" width="37.151" height="46.978" viewBox="0 0 37.151 46.978">
  <defs>
    <clipPath id="clip-path">
      <rect id="사각형_19112" data-name="사각형 19112" width="37.151" height="46.978" fill="none"/>
    </clipPath>
  </defs>
  <g id="그룹_31122" data-name="그룹 31122" transform="translate(0 0)">
    <g id="그룹_31121" data-name="그룹 31121" transform="translate(0 0)" clip-path="url(#clip-path)">
      <path id="패스_58302" data-name="패스 58302" d="M23.42,21.576H4.217a3.63,3.63,0,0,1-3.6-4.043L1.952,8.257A3.665,3.665,0,0,1,5.625,4.945H8.35A1.59,1.59,0,0,0,9.785,4.07l1.191-2.364a.85.85,0,0,1,1.516.767L11.3,4.828A3.291,3.291,0,0,1,8.35,6.651H5.625a1.984,1.984,0,0,0-1.985,1.8L2.3,17.75a1.934,1.934,0,0,0,1.913,2.13h19.2a1.937,1.937,0,0,0,1.913-2.148L24,8.5a1.989,1.989,0,0,0-1.985-1.85H19.287a3.281,3.281,0,0,1-2.951-1.823L15.145,2.473a.85.85,0,1,1,1.516-.767l1.191,2.355a1.582,1.582,0,0,0,1.435.884h2.725A3.669,3.669,0,0,1,25.685,8.3l1.326,9.2a3.621,3.621,0,0,1-3.591,4.07" transform="translate(4.761 9.927)"/>
      <path id="패스_58303" data-name="패스 58303" d="M7.957,13.256a6.628,6.628,0,1,1,6.633-6.633,6.637,6.637,0,0,1-6.633,6.633m0-11.56a4.932,4.932,0,1,0,4.927,4.927A4.933,4.933,0,0,0,7.957,1.7" transform="translate(10.624 0.001)"/>
      <path id="패스_58304" data-name="패스 58304" d="M7.231,7.522a.844.844,0,0,1-.55-.2L1.717,3.146a.847.847,0,0,1-.1-1.2.836.836,0,0,1,1.191-.1L7.231,5.564l4.4-3.718a.852.852,0,1,1,1.1,1.3L7.781,7.324a.861.861,0,0,1-.55.2" transform="translate(11.349 13.18)"/>
      <path id="패스_58305" data-name="패스 58305" d="M8.9,9.942H3.956a.848.848,0,1,1,0-1.7H8.9a1.931,1.931,0,0,0,0-3.862H2.052a.848.848,0,1,1,0-1.7H8.9a3.628,3.628,0,1,1,0,7.255" transform="translate(9.661 21.561)"/>
      <path id="패스_58306" data-name="패스 58306" d="M6.413,5H3.119a.848.848,0,1,1,0-1.7H6.413a.848.848,0,0,1,0,1.7" transform="translate(18.222 26.504)"/>
      <path id="패스_58307" data-name="패스 58307" d="M12.014,4.384H2.53a.848.848,0,1,1,0-1.7h9.484a.848.848,0,1,1,0,1.7" transform="translate(13.424 21.569)"/>
      <path id="패스_58308" data-name="패스 58308" d="M6.9,14.882A5.441,5.441,0,1,1,12.338,9.44,5.442,5.442,0,0,1,6.9,14.882M6.9,5.7A3.745,3.745,0,1,0,10.641,9.44,3.747,3.747,0,0,0,6.9,5.7" transform="translate(11.675 32.088)"/>
      <path id="패스_58309" data-name="패스 58309" d="M4.162,10.6a.874.874,0,0,1-.677-.343L1.96,8.225a.851.851,0,0,1,1.363-1.02l.911,1.218L7.979,4.39A.846.846,0,1,1,9.215,5.545L4.784,10.328a.861.861,0,0,1-.623.271" transform="translate(14.391 33.06)"/>
      <path id="패스_58310" data-name="패스 58310" d="M8.351,14.506a5.441,5.441,0,1,1,5.441-5.441,5.442,5.442,0,0,1-5.441,5.441m0-9.186A3.745,3.745,0,1,0,12.1,9.064,3.747,3.747,0,0,0,8.351,5.319" transform="translate(23.349 29.071)"/>
      <path id="패스_58311" data-name="패스 58311" d="M5.615,10.221a.848.848,0,0,1-.677-.343L3.422,7.848a.847.847,0,1,1,1.354-1.02l.911,1.218L9.432,4.013a.849.849,0,0,1,1.245,1.155L6.238,9.951a.861.861,0,0,1-.623.271" transform="translate(26.067 30.044)"/>
      <path id="패스_58312" data-name="패스 58312" d="M5.441,14.506a5.441,5.441,0,1,1,5.441-5.441,5.442,5.442,0,0,1-5.441,5.441m0-9.186A3.745,3.745,0,1,0,9.186,9.064,3.747,3.747,0,0,0,5.441,5.319" transform="translate(0 29.071)"/>
      <path id="패스_58313" data-name="패스 58313" d="M2.707,10.221a.848.848,0,0,1-.677-.343L.505,7.848a.851.851,0,0,1,1.363-1.02l.911,1.218L6.524,4.013A.849.849,0,0,1,7.769,5.168L3.329,9.951a.861.861,0,0,1-.623.271" transform="translate(2.716 30.044)"/>
    </g>
  </g>
</svg>
