<svg id="그룹_31041" data-name="그룹 31041" xmlns="http://www.w3.org/2000/svg" xmlns:xlink="http://www.w3.org/1999/xlink" width="59.647" height="57.912" viewBox="0 0 59.647 57.912">
  <defs>
    <clipPath id="clip-path">
      <rect id="사각형_19029" data-name="사각형 19029" width="59.647" height="57.912" fill="none"/>
    </clipPath>
  </defs>
  <g id="그룹_31040" data-name="그룹 31040" clip-path="url(#clip-path)">
    <path id="패스_58200" data-name="패스 58200" d="M42.274,61.607H7.791c-1.892,0-4.038-.19-5.607-1.6C.694,58.675,0,56.531,0,53.263V45.331A1.331,1.331,0,0,1,1.331,44H36.2a1.331,1.331,0,0,1,1.331,1.331v7.932c0,3.77,1.595,5.682,4.74,5.682a1.331,1.331,0,1,1,0,2.662ZM2.662,46.662v6.6c0,5.3,1.938,5.682,5.129,5.682h28.68a9.426,9.426,0,0,1-1.6-5.682v-6.6Z" transform="translate(-0.397 -3.298)"/>
    <path id="패스_58201" data-name="패스 58201" d="M45.165,61.58a1.331,1.331,0,0,1,0-2.662c2.385,0,5.229-.986,5.229-5.682V44.914a1.331,1.331,0,0,1,2.662,0v8.322a8.276,8.276,0,0,1-2.466,6.458A7.941,7.941,0,0,1,45.165,61.58Z" transform="translate(-3.287 -3.271)"/>
    <path id="패스_58202" data-name="패스 58202" d="M52.188,43.372a1.331,1.331,0,0,1-1.331-1.331V9.271c0-.139,0-.286,0-.438-.013-2.083-.033-5.231,1.939-7.216A5.911,5.911,0,0,1,57.164,0a1.331,1.331,0,0,1,0,2.662,3.331,3.331,0,0,0-2.483.831c-1.191,1.2-1.175,3.68-1.165,5.323,0,.159,0,.311,0,.455V42.04A1.331,1.331,0,0,1,52.188,43.372Z" transform="translate(-3.75 -0.397)"/>
    <path id="패스_58203" data-name="패스 58203" d="M11.188,43.761A1.331,1.331,0,0,1,9.857,42.43V9.271A9.463,9.463,0,0,1,12.366,2.4,8.621,8.621,0,0,1,18.639,0H54.462a5.851,5.851,0,0,1,5.861,3.777,14.786,14.786,0,0,1,.767,5.493v7.005a1.331,1.331,0,0,1-1.331,1.331h-10.1a1.331,1.331,0,1,1,0-2.662h8.772V9.271c0-4.185-.649-6.608-3.966-6.608H18.639c-3.889,0-6.12,2.409-6.12,6.608V42.43A1.331,1.331,0,0,1,11.188,43.761Z" transform="translate(-1.047 -0.397)"/>
    <path id="패스_58204" data-name="패스 58204" d="M37.589,35.066a1.331,1.331,0,0,1-1.218-.792L29.6,19.012l-7.238,15.14A1.331,1.331,0,0,1,19.964,33l8.484-17.747a1.331,1.331,0,0,1,2.418.034l7.94,17.9a1.332,1.332,0,0,1-1.216,1.871Z" transform="translate(-1.705 -1.353)"/>
    <path id="선_1461" data-name="선 1461" d="M9.282,1.662H.331A1.331,1.331,0,0,1,.331-1H9.282a1.331,1.331,0,1,1,0,2.662Z" transform="translate(22.865 24.033)"/>
    <path id="선_1462" data-name="선 1462" d="M6.558,1.662H.331A1.331,1.331,0,1,1,.331-1H6.558a1.331,1.331,0,0,1,0,2.662Z" transform="translate(33.295 16.404)"/>
    <path id="선_1463" data-name="선 1463" d="M.331,7.89A1.331,1.331,0,0,1-1,6.558V.331a1.331,1.331,0,1,1,2.662,0V6.558A1.331,1.331,0,0,1,.331,7.89Z" transform="translate(36.409 13.29)"/>
  </g>
</svg>
