<svg xmlns="http://www.w3.org/2000/svg" xmlns:xlink="http://www.w3.org/1999/xlink" width="61" height="62" viewBox="0 0 61 62">
  <defs>
    <clipPath id="clip-path">
      <rect id="사각형_19028" data-name="사각형 19028" width="61" height="62" transform="translate(0.044 0)" fill="none"/>
    </clipPath>
  </defs>
  <g id="그룹_31039" data-name="그룹 31039" transform="translate(0.461 0.402)">
    <g id="그룹_31038" data-name="그룹 31038" transform="translate(-0.505 -0.402)" clip-path="url(#clip-path)">
      <path id="사각형_19027" data-name="사각형 19027" d="M1.682-1H56.653a2.685,2.685,0,0,1,2.682,2.682v36.2a2.685,2.685,0,0,1-2.682,2.682H1.682A2.685,2.685,0,0,1-1,37.883V1.682A2.685,2.685,0,0,1,1.682-1ZM56.653,37.883V1.682H1.68l0,36.2Z" transform="translate(1.377 1.162)"/>
      <path id="선_1461" data-name="선 1461" d="M27.156,1.682H.341A1.341,1.341,0,0,1,.341-1H27.156a1.341,1.341,0,0,1,0,2.682Z" transform="translate(17.466 48.089)"/>
      <path id="선_1462" data-name="선 1462" d="M57.994,1.682H.341A1.341,1.341,0,0,1,.341-1H57.994a1.341,1.341,0,1,1,0,2.682Z" transform="translate(1.377 33.34)"/>
      <path id="선_1463" data-name="선 1463" d="M.341,9.726A1.341,1.341,0,0,1-1,8.385V.341a1.341,1.341,0,0,1,2.682,0V8.385A1.341,1.341,0,0,1,.341,9.726Z" transform="translate(24.17 40.044)"/>
      <path id="선_1464" data-name="선 1464" d="M.341,9.726A1.341,1.341,0,0,1-1,8.385V.341a1.341,1.341,0,0,1,2.682,0V8.385A1.341,1.341,0,0,1,.341,9.726Z" transform="translate(37.578 40.044)"/>
      <path id="패스_58200" data-name="패스 58200" d="M56.54,62.577H5.008a3.186,3.186,0,0,1-2.176-5.513l3.432-3.206A3.177,3.177,0,0,1,8.438,53h44.67a3.176,3.176,0,0,1,2.175.857l3.431,3.206a3.186,3.186,0,0,1-2.175,5.514Zm-48.1-6.9a.5.5,0,0,0-.345.136L4.663,59.022a.5.5,0,0,0,.345.873H56.54a.5.5,0,0,0,.344-.873l-3.431-3.205a.5.5,0,0,0-.345-.135Z" transform="translate(0.117 -0.685)"/>
    </g>
  </g>
</svg>
