<svg xmlns="http://www.w3.org/2000/svg" width="70" height="70" viewBox="0 0 70 70">
  <g id="Group_3496" data-name="Group 3496" transform="translate(-210.668 -1231.302)">
    <rect id="Rectangle_2611" data-name="Rectangle 2611" width="70" height="70" transform="translate(210.668 1231.302)" fill="none"/>
    <path id="Path_425" data-name="Path 425" d="M235.329,1279.627H225.14v13.854h10.189" fill="none" stroke="#000" stroke-linecap="round" stroke-linejoin="round" stroke-width="2"/>
    <path id="Path_426" data-name="Path 426" d="M245.518,1272.917H235.329v20.564h10.189" fill="none" stroke="#000" stroke-linecap="round" stroke-linejoin="round" stroke-width="2"/>
    <path id="Path_427" data-name="Path 427" d="M255.707,1265.868H245.52l0,27.612h10.189" fill="none" stroke="#000" stroke-linecap="round" stroke-linejoin="round" stroke-width="2"/>
    <path id="Path_428" data-name="Path 428" d="M265.882,1281.156h0v-2.541" fill="none" stroke="#000" stroke-linecap="round" stroke-linejoin="round" stroke-width="2"/>
    <path id="Path_429" data-name="Path 429" d="M265.877,1263.915v-9.005a.868.868,0,0,1,.868-.868h3.935l-9.889-9.892-9.892,9.892h3.927a.868.868,0,0,1,.868.868h0v38.574h10.187v-6.244" fill="none" stroke="#000" stroke-linecap="round" stroke-linejoin="round" stroke-width="2"/>
    <path id="Path_430" data-name="Path 430" d="M265.882,1272.54h0v-2.56" fill="none" stroke="#000" stroke-linecap="round" stroke-linejoin="round" stroke-width="2"/>
    <path id="Path_431" data-name="Path 431" d="M218.685,1293.482h53.871" fill="none" stroke="#000" stroke-linecap="round" stroke-linejoin="round" stroke-width="2"/>
  </g>
</svg>
