<svg xmlns="http://www.w3.org/2000/svg" width="70" height="70" viewBox="0 0 70 70">
  <g id="Group_3492" data-name="Group 3492" transform="translate(-635 -1527)">
    <rect id="Rectangle_2607" data-name="Rectangle 2607" width="70" height="70" transform="translate(635 1527)" fill="none"/>
    <rect id="Rectangle_2608" data-name="Rectangle 2608" width="35.991" height="46.874" rx="2.13" transform="translate(643.058 1537.547)" fill="none" stroke="#000" stroke-linecap="round" stroke-linejoin="round" stroke-width="2"/>
    <rect id="Rectangle_2609" data-name="Rectangle 2609" width="20.167" height="5.774" rx="1.065" transform="translate(650.97 1534.791)" fill="#fff" stroke="#000" stroke-linecap="round" stroke-linejoin="round" stroke-width="1.8"/>
    <line id="Line_772" data-name="Line 772" x2="21.285" transform="translate(650.411 1551.377)" fill="none" stroke="#000" stroke-linecap="round" stroke-linejoin="round" stroke-width="1.8"/>
    <line id="Line_773" data-name="Line 773" x2="21.285" transform="translate(650.411 1562.092)" fill="none" stroke="#000" stroke-linecap="round" stroke-linejoin="round" stroke-width="1.8"/>
    <line id="Line_774" data-name="Line 774" x2="11.601" transform="translate(650.411 1572.806)" fill="none" stroke="#000" stroke-linecap="round" stroke-linejoin="round" stroke-width="1.8"/>
    <circle id="Ellipse_184" data-name="Ellipse 184" cx="13.484" cy="13.484" r="13.484" transform="translate(669.497 1561.889)" fill="#fff" stroke="#000" stroke-linecap="round" stroke-linejoin="round" stroke-width="1.9"/>
    <path id="Path_1787" data-name="Path 1787" d="M79.879,1286.291a8.461,8.461,0,0,1-2.163-.276,6.523,6.523,0,0,1-1.772-.729.994.994,0,0,1-.5-.714,1.207,1.207,0,0,1,.2-.823,1.061,1.061,0,0,1,.63-.5l.238-.028a1.215,1.215,0,0,1,.558.174,6,6,0,0,0,1.369.559,5.711,5.711,0,0,0,1.543.2,2.884,2.884,0,0,0,1.761-.427,1.328,1.328,0,0,0,.54-1.071,1.41,1.41,0,0,0-.564-1.264,4.916,4.916,0,0,0-1.852-.663,14.6,14.6,0,0,1-1.953-.5,4.607,4.607,0,0,1-1.378-.732,2.712,2.712,0,0,1-.815-1.068,3.955,3.955,0,0,1-.262-1.523,3.639,3.639,0,0,1,.3-1.554,3.189,3.189,0,0,1,.895-1.166,4.388,4.388,0,0,1,1.458-.781,6.239,6.239,0,0,1,2-.289,7.183,7.183,0,0,1,3.25.665.933.933,0,0,1,.521.613,1.087,1.087,0,0,1-.111.814.954.954,0,0,1-.576.526,1.031,1.031,0,0,1-.276.041,1.125,1.125,0,0,1-.464-.106,4.99,4.99,0,0,0-1.081-.341,6.229,6.229,0,0,0-1.226-.1,3.38,3.38,0,0,0-1.018.135,2.337,2.337,0,0,0-.728.352,1.52,1.52,0,0,0-.445.484,1.144,1.144,0,0,0-.146.547,1.553,1.553,0,0,0,.111.679,1.126,1.126,0,0,0,.4.441,3.215,3.215,0,0,0,.8.37,10.426,10.426,0,0,0,1.335.325,6.7,6.7,0,0,1,3.217,1.39,3.126,3.126,0,0,1,.977,2.368,3.594,3.594,0,0,1-1.211,3A5.613,5.613,0,0,1,79.879,1286.291Z" transform="translate(602.976 295.698)"/>
    <line id="Line_775" data-name="Line 775" y2="14.665" transform="translate(683.059 1568.127)" fill="none" stroke="#000" stroke-linecap="round" stroke-linejoin="round" stroke-width="1.8"/>
  </g>
</svg>
