<svg xmlns="http://www.w3.org/2000/svg" width="70" height="70" viewBox="0 0 70 70">
  <g id="Group_3495" data-name="Group 3495" transform="translate(-120.507 -1231.302)">
    <g id="box_copy" data-name="box copy">
      <rect id="Rectangle_2610" data-name="Rectangle 2610" width="70" height="70" transform="translate(120.507 1231.302)" fill="none"/>
    </g>
    <g id="icon">
      <circle id="Ellipse_185" data-name="Ellipse 185" cx="6.69" cy="6.69" r="6.69" transform="translate(150.556 1244.103)" fill="none" stroke="#000" stroke-linecap="round" stroke-linejoin="round" stroke-width="1.8"/>
      <path id="Path_1788" data-name="Path 1788" d="M157.184,1254.076a4.185,4.185,0,0,1-1.074-.137,3.272,3.272,0,0,1-.879-.361.5.5,0,0,1-.247-.355.6.6,0,0,1,.1-.408.517.517,0,0,1,.312-.246l.118-.014a.61.61,0,0,1,.277.086,2.985,2.985,0,0,0,.679.278,2.856,2.856,0,0,0,.766.1,1.429,1.429,0,0,0,.873-.212.659.659,0,0,0,.268-.532.7.7,0,0,0-.279-.627,2.434,2.434,0,0,0-.919-.329,7.211,7.211,0,0,1-.969-.247,2.3,2.3,0,0,1-.684-.364,1.334,1.334,0,0,1-.4-.529,1.952,1.952,0,0,1-.13-.756,1.8,1.8,0,0,1,.148-.771,1.591,1.591,0,0,1,.444-.579,2.182,2.182,0,0,1,.723-.387,3.109,3.109,0,0,1,.99-.143,3.549,3.549,0,0,1,1.613.33.464.464,0,0,1,.259.3.543.543,0,0,1-.056.4.47.47,0,0,1-.285.261.476.476,0,0,1-.137.02.562.562,0,0,1-.231-.052,2.46,2.46,0,0,0-.536-.169,3.107,3.107,0,0,0-.608-.051,1.694,1.694,0,0,0-.505.067,1.173,1.173,0,0,0-.362.175.757.757,0,0,0-.22.24.566.566,0,0,0-.073.271.779.779,0,0,0,.055.337.556.556,0,0,0,.2.219,1.591,1.591,0,0,0,.4.184,5.226,5.226,0,0,0,.663.161,3.329,3.329,0,0,1,1.6.69,1.554,1.554,0,0,1,.485,1.175,1.782,1.782,0,0,1-.6,1.486A2.78,2.78,0,0,1,157.184,1254.076Z"/>
      <line id="Line_776" data-name="Line 776" y2="7.276" transform="translate(157.285 1247.198)" fill="none" stroke="#000" stroke-linecap="round" stroke-linejoin="round" stroke-width="1.4"/>
      <path id="Path_1789" data-name="Path 1789" d="M181.293,1261.931h-2.8a15.228,15.228,0,0,0-3.546-4.977l1.793-7.158h-3.034a9.044,9.044,0,0,0-6.921,3.252,14.9,14.9,0,0,0-2.18-.218H152.473a15.183,15.183,0,0,0-14.865,12.135h-4.1a2.276,2.276,0,0,1-2.227-2.731,2.336,2.336,0,0,1,2.323-1.82h.094a.571.571,0,0,0,.568-.573h0v-1.888a.571.571,0,0,0-.569-.569,5.431,5.431,0,0,0-5.451,4.6,5.312,5.312,0,0,0,4.567,5.964,5.151,5.151,0,0,0,.691.046h3.8a15.1,15.1,0,0,0,6.067,12.069v7.65a1.521,1.521,0,0,0,1.517,1.517h6.067a1.521,1.521,0,0,0,1.517-1.517v-4.55h12.135v4.55a1.521,1.521,0,0,0,1.517,1.517h6.067a1.521,1.521,0,0,0,1.517-1.517v-7.651a15.161,15.161,0,0,0,2.966-2.967h4.617a1.52,1.52,0,0,0,1.518-1.516v-12.135A1.521,1.521,0,0,0,181.293,1261.931Z" fill="#fff" stroke="#000" stroke-linecap="round" stroke-linejoin="round" stroke-width="2"/>
      <path id="Path_1790" data-name="Path 1790" d="M169.158,1268a1.517,1.517,0,1,1,1.517-1.517A1.517,1.517,0,0,1,169.158,1268Z" fill="none" stroke="#000" stroke-linecap="round" stroke-linejoin="round" stroke-width="1.8"/>
    </g>
  </g>
</svg>
