<svg xmlns="http://www.w3.org/2000/svg" xmlns:xlink="http://www.w3.org/1999/xlink" width="55.977" height="47.742" viewBox="0 0 55.977 47.742">
  <defs>
    <clipPath id="clip-path">
      <rect id="사각형_5384" data-name="사각형 5384" width="55.977" height="47.742" fill="#fff"/>
    </clipPath>
  </defs>
  <g id="그룹_5265" data-name="그룹 5265" transform="translate(4.05 3.454)">
    <g id="그룹_5264" data-name="그룹 5264" transform="translate(-4.05 -3.454)" clip-path="url(#clip-path)">
      <path id="패스_17181" data-name="패스 17181" d="M42.868,28.5l-2.087-2.047,1.251-1.276a1.151,1.151,0,0,0,.249-1.523L26.763,8.445c-.337-.331-1.049-.2-1.519.278l-.973.995L22.182,7.675l.973-1a4.017,4.017,0,0,1,5.654-.32l15.518,15.21a4.018,4.018,0,0,1-.208,5.658Z" transform="translate(3.753 0.904)" fill="#fff"/>
      <path id="패스_17182" data-name="패스 17182" d="M7.912,26.205a4.5,4.5,0,0,1-1.347-3.146,3.272,3.272,0,0,1,.963-2.341L21.49,7.1c1.4-1.376,3.864-1.159,5.483.486L24.889,9.638c-.55-.56-1.189-.608-1.354-.448L9.57,22.81a.416.416,0,0,0-.082.275,1.609,1.609,0,0,0,.506,1.07Z" transform="translate(1.111 1.048)" fill="#fff"/>
      <path id="패스_17183" data-name="패스 17183" d="M27.023,45.364a4.466,4.466,0,0,1-3.057-1.3l-.628-.608,2.034-2.1.623.6c.558.534,1.157.546,1.308.4l13.96-13.619a.429.429,0,0,0,.082-.277,1.591,1.591,0,0,0-.505-1.062L29.728,16.11l2.082-2.051L42.922,25.351a4.493,4.493,0,0,1,1.347,3.138,3.287,3.287,0,0,1-.961,2.344L29.343,44.455a3.279,3.279,0,0,1-2.32.908" transform="translate(3.948 2.378)" fill="#fff"/>
      <path id="패스_17184" data-name="패스 17184" d="M9.314,32.42a3.759,3.759,0,0,1-2.642-1.143L5.8,30.4A3.789,3.789,0,0,1,4.7,28.07a3.1,3.1,0,0,1,.877-2.484l6.06-6.01a3.512,3.512,0,0,1,4.812.269l.872.88a3.78,3.78,0,0,1,1.117,2.64,3.044,3.044,0,0,1-.893,2.173l-6.057,6.008a3.052,3.052,0,0,1-2.17.872M13.8,21.628l-6.17,6.033a.243.243,0,0,0-.023.157.866.866,0,0,0,.27.524l.87.879a.744.744,0,0,0,.678.251l6.06-6.011a.8.8,0,0,0-.247-.678l-.87-.88a.857.857,0,0,0-.568-.275" transform="translate(0.792 3.171)" fill="#fff"/>
      <path id="패스_17185" data-name="패스 17185" d="M12.485,35.892A3.768,3.768,0,0,1,9.841,34.75l-.87-.877a3.425,3.425,0,0,1-.23-4.813L14.8,23.05a3.509,3.509,0,0,1,4.813.268l.87.879A3.769,3.769,0,0,1,21.6,26.835a3.045,3.045,0,0,1-.891,2.177l-6.06,6.008a3.045,3.045,0,0,1-2.168.871M16.973,25.1,10.8,31.133c-.053.053-.053.38.247.683l.87.877a.767.767,0,0,0,.678.254l6.06-6.011a.805.805,0,0,0-.246-.682l-.873-.879a.844.844,0,0,0-.564-.275" transform="translate(1.329 3.758)" fill="#fff"/>
      <path id="패스_17186" data-name="패스 17186" d="M16,39.153a3.77,3.77,0,0,1-2.645-1.145l-.87-.876A3.769,3.769,0,0,1,11.365,34.5a3.056,3.056,0,0,1,.889-2.181l6.063-6.011a3.5,3.5,0,0,1,4.811.272l.87.879a3.769,3.769,0,0,1,1.117,2.629,3.053,3.053,0,0,1-.886,2.179l-6.06,6.011a3.051,3.051,0,0,1-2.17.872M20.483,28.36,14.314,34.4a.184.184,0,0,0-.026.113.852.852,0,0,0,.27.564l.872.879a.711.711,0,0,0,.678.254l6.06-6.01a.794.794,0,0,0-.247-.675l-.872-.885a.85.85,0,0,0-.566-.276" transform="translate(1.923 4.31)" fill="#fff"/>
      <path id="패스_17187" data-name="패스 17187" d="M19.453,42.393a3.769,3.769,0,0,1-2.642-1.14l-.872-.88a3.792,3.792,0,0,1-1.1-2.331,3.094,3.094,0,0,1,.879-2.482l6.056-6.008a3.506,3.506,0,0,1,4.813.271l.87.878a3.765,3.765,0,0,1,1.119,2.629,3.059,3.059,0,0,1-.889,2.183l-6.062,6.008a3.048,3.048,0,0,1-2.17.872M23.94,31.6l-6.17,6.033a.249.249,0,0,0-.023.157.866.866,0,0,0,.27.524l.87.879a.753.753,0,0,0,.676.253l6.065-6.01a.213.213,0,0,0,.023-.113.85.85,0,0,0-.27-.564l-.875-.884a.847.847,0,0,0-.566-.275" transform="translate(2.508 4.858)" fill="#fff"/>
      <path id="패스_17188" data-name="패스 17188" d="M23.147,24.692a4.308,4.308,0,0,1-4.159-2.654l-.075-.33-.994-9.051,6.632-6.629,2.067,2.066-5.64,5.639.815,7.421c.153.251.626.754,1.824.58l.124-.018.123,0c.129-.009,1.013-.152,1.174-2.034l-.148-5.154,3.883-3.584L30.754,13.1l-2.905,2.682.115,3.978-.007.075c-.276,3.753-2.679,4.776-4.03,4.811a6.294,6.294,0,0,1-.779.05" transform="translate(3.032 1.02)" fill="#fff"/>
      <rect id="사각형_5377" data-name="사각형 5377" width="9.633" height="2.922" transform="translate(29.622 6.811) rotate(-45)" fill="#fff"/>
      <rect id="사각형_5378" data-name="사각형 5378" width="10.229" height="2.923" transform="matrix(0.714, -0.7, 0.7, 0.714, 46.627, 24.214)" fill="#fff"/>
      <rect id="사각형_5379" data-name="사각형 5379" width="2.922" height="9.633" transform="translate(17.474 2.066) rotate(-45)" fill="#fff"/>
      <rect id="사각형_5380" data-name="사각형 5380" width="2.923" height="10.229" transform="matrix(0.7, -0.714, 0.714, 0.7, 0, 19.14)" fill="#fff"/>
      <rect id="사각형_5381" data-name="사각형 5381" width="2.923" height="7.339" transform="matrix(0.688, -0.726, 0.726, 0.688, 36.317, 31.08)" fill="#fff"/>
      <rect id="사각형_5382" data-name="사각형 5382" width="2.923" height="7.336" transform="translate(32.455 35.006) rotate(-46.55)" fill="#fff"/>
      <rect id="사각형_5383" data-name="사각형 5383" width="2.923" height="6.446" transform="matrix(0.714, -0.7, 0.7, 0.714, 28.969, 39.117)" fill="#fff"/>
    </g>
  </g>
</svg>
