<svg xmlns="http://www.w3.org/2000/svg" width="53" height="47.93" viewBox="0 0 53 47.93">
  <g id="그룹_5258" data-name="그룹 5258" transform="translate(0 0)">
    <path id="패스_17172" data-name="패스 17172" d="M0,0v46.39H3.081V3.081h33.65V44.849H10.349V47.93H39.813V0Z" transform="translate(0 0)"/>
    <rect id="사각형_5363" data-name="사각형 5363" width="17.031" height="3.081" transform="translate(11.921 10.231)" fill="#04b084"/>
    <rect id="사각형_5364" data-name="사각형 5364" width="17.031" height="3.081" transform="translate(11.921 17.937)" fill="#04b084"/>
    <rect id="사각형_5365" data-name="사각형 5365" width="17.031" height="3.081" transform="translate(11.921 25.644)" fill="#04b084"/>
    <rect id="사각형_5366" data-name="사각형 5366" width="17.031" height="3.081" transform="translate(11.921 33.472)" fill="#04b084"/>
    <path id="패스_17173" data-name="패스 17173" d="M38.17,15.029h3.588V41.6H38.17ZM35.09,44.682h9.75V11.948H35.09Z" transform="translate(8.16 2.779)"/>
    <path id="패스_17174" data-name="패스 17174" d="M43.02,15.68H36.549V7.824H43.02Zm-4.006-2.465h1.541V10.289H39.014Z" transform="translate(8.5 1.82)"/>
    <rect id="사각형_5367" data-name="사각형 5367" width="2.465" height="4.258" transform="translate(46.893 5.359)"/>
  </g>
</svg>
