<svg xmlns="http://www.w3.org/2000/svg" xmlns:xlink="http://www.w3.org/1999/xlink" width="47.238" height="40.782" viewBox="0 0 47.238 40.782">
  <defs>
    <clipPath id="clip-path">
      <rect id="사각형_5362" data-name="사각형 5362" width="47.238" height="40.782" fill="none"/>
    </clipPath>
  </defs>
  <g id="그룹_5257" data-name="그룹 5257" transform="translate(0 0)">
    <g id="그룹_5256" data-name="그룹 5256" transform="translate(0 0)" clip-path="url(#clip-path)">
      <path id="패스_17170" data-name="패스 17170" d="M20.615,40.781l-.706-.374C-1.006,29.334-.031,13.087.021,12.4.25.15,10.551.008,10.655.008a12.076,12.076,0,0,1,9.961,4.61,12.1,12.1,0,0,1,10-4.61h0a10.782,10.782,0,0,1,10.2,8.935l-2.947.647c-1.426-6.49-7.055-6.564-7.294-6.564a9.51,9.51,0,0,0-8.6,4.963L20.6,10.759,19.255,7.982a9.43,9.43,0,0,0-8.249-4.961c-.1,0-.2,0-.307,0-.8.008-7.493.35-7.666,9.515-.045.68-.78,14.735,17.581,24.817a42.483,42.483,0,0,0,8.511-6.053l2.056,2.209a46.1,46.1,0,0,1-9.861,6.892Z" transform="translate(0 0.001)"/>
      <path id="패스_17171" data-name="패스 17171" d="M35.92,28.645,31.186,16.384l-4.447,9.951L23.665,18.65H15.318V15.632H25.709l1.183,2.961,4.5-10.063L36.026,20.54l2.134-5.122h5.9v3.018H40.171Z" transform="translate(3.174 1.768)" fill="#04b084"/>
    </g>
  </g>
</svg>
